<svg id="Laag_1" data-name="Laag 1" xmlns="http://www.w3.org/2000/svg" viewBox="0 0 4377.63 2554.81"><defs><style>.cls-1,.cls-2{fill:#f2a100;}.cls-1,.cls-3,.cls-4{stroke:#f28d00;stroke-miterlimit:10;stroke-width:120px;}.cls-3{fill:none;stroke-linecap:round;}.cls-4{fill:#fff;}</style></defs><title>Tekengebied 4</title><path class="cls-1" d="M4277,845.61c-44.75-14.49-86.89-31.63-128.2-49.6-41.47-17.81-81.65-36.94-121.18-56.72Q3998,724.4,3968.94,709l-7.28-3.84-3.63-1.93a22.24,22.24,0,0,0-3.36-1.68l-11.3-4.35c-7.32-3-15.09-5.17-22.29-7.76-7.3-2.44-15-4.11-22-6.31-7.49-1.57-14.47-3.61-21.81-4.76-7.22-1.34-14.17-2.84-21.37-3.58l-10.5-1.39-10.46-1c-55.4-4.53-106.26,3.15-150.23,18.46a320.12,320.12,0,0,0-110,64.79c-14.89,13-27.8,27.4-40.24,42.13a417.34,417.34,0,0,0-33.41,45.51c-9.89,15.57-19.37,31.48-27.37,48.77-1,2.16-1.95,4.33-3.1,6.46s-1.85,4.43-2.85,6.63c-2.1,4.39-3.69,9-5.61,13.52l-5.22,14c-1.28,4.78-3.33,9.54-4.34,14.47a273.37,273.37,0,0,0-11,61.92c-1.34,21.52-.34,43.86,4.31,65.87a230.72,230.72,0,0,0,23.1,64.8l4.24,7.79c1.44,2.6,3.16,5,4.69,7.59s3,5.2,4.79,7.63l5.3,7.35,2.63,3.72,5.1,5.93,10.37,11.94,20.86,23.76,44,50,14.62,16.8c4.86,5.6,9.34,11.57,14,17.37s9.24,11.61,13.61,17.62l12.91,18.16a715.78,715.78,0,0,1,82.45,156.47A703.83,703.83,0,0,1,3748,1833.12c-14.94,113-58.09,220.86-123.42,310.48a663.37,663.37,0,0,1-111.89,119.86c-41.55,34.74-86.83,64.81-135,88.1-96.38,46.79-202.24,68.41-304.87,64.19s-202.23-33.51-287.07-84.2l-15.8-9.59c-5.21-3.26-10.25-6.82-15.35-10.22-10.27-6.69-20-14.16-29.73-21.51s-18.87-15.44-28.21-23.11c-8.94-8.22-17.93-16.29-26.39-24.87s-16.92-17.08-24.63-26.26l-11.76-13.5-10.11-12.44-39.85-49.41c-52.89-66.13-105.83-132.22-157.9-199.19a28,28,0,0,1,39-39.59c67.75,51.05,134.63,103,201.56,154.87l50,39.1,12.4,9.64,11.26,8.06c7.31,5.55,15.29,10.2,22.88,15.2a439.47,439.47,0,0,0,97.22,45.13c67.09,21.49,137.27,26.15,202.64,14.41a403.92,403.92,0,0,0,93.48-28.12c29.44-12.73,56.47-29.49,81-48.4,24.68-18.7,46.2-40.77,65-64.45a348,348,0,0,0,46.17-75.9c11.8-26.56,20.83-53.78,25.59-81.61,5-27.71,7.16-55.57,5.26-83a326.31,326.31,0,0,0-13.95-79.53l-2.87-9.49-3.38-9.3c-1.95-6.25-5-12.16-7.26-18.23a345.24,345.24,0,0,0-17.75-34.4,296.81,296.81,0,0,0-45.89-59.93l-6.59-6.63c-2.2-2.19-4.67-4.17-7-6.28s-4.47-4.28-6.95-6.21l-7.29-5.88L3215,1532.08l-24.08-20.49-12.09-10.19-6.12-5.15-8.32-7.62-16.6-15.34c-5.57-5.1-10.77-10.6-16.15-15.94s-10.73-10.72-15.87-16.32l-15.26-17a787.82,787.82,0,0,1-105.24-151.6c-7.56-13.64-14.06-27.78-20.85-41.89-6.57-14.18-12.53-28.66-18.41-43.23-5.34-14.71-11.18-29.4-15.66-44.48l-7-22.61c-2.12-7.6-4.08-15.25-6.07-22.9-4.19-15.3-7.13-30.84-10.33-46.42-2.89-15.6-5.33-31.34-7.42-47.15-1.74-15.83-3.58-31.74-4.27-47.72l-1.19-24-.22-24.09c.3-128.47,36.31-259.64,105.78-371.26,17.09-28,36.53-54.5,57.24-79.77,10.65-12.34,21.17-24.88,32.58-36.44s22.64-23.31,34.83-34c47.95-43.69,101.84-81.45,159.87-110.4,14.57-7.12,29.12-14.16,44.09-20.25,7.46-3.09,14.83-6.34,22.37-9.18s15.09-5.62,22.67-8.28,15.21-5.17,22.91-7.44l23-6.83c7.72-2.08,15.5-3.95,23.23-5.87s15.45-3.87,23.31-5.22c62.42-12.36,125.64-17.28,187.7-12.86,124,7.93,243,49.42,339.48,117.07,48.25,33.74,91.25,73.22,126.55,117.41,8.73,11.13,17.52,22,25.22,33.7l11.72,17.21a39.75,39.75,0,0,1,2.3,3.8l2,3.6,4,7.22q15.9,28.79,31.21,58.19c20.37,39.23,40.11,79.11,58.55,120.31C4283,719.63,4300.8,761.5,4316,806a31.07,31.07,0,0,1-39,39.59Z"/><circle class="cls-1" cx="2031.3" cy="1663.83" r="837.98"/><path class="cls-2" d="M1642.51,201.09l-68.13,819.17c-4.91,59-30.35,150.78-56.54,203.91l-614.3,1246c-20.79,42.16-80.9,42.21-101.75.08L185.06,1224.52c-26.4-53.32-52-145.45-57-204.74L60,200.86c-.92-11.09,13-16.74,20.07-8.16L534.59,887.36H1170.9L1622.41,193C1629.47,184.34,1643.43,190,1642.51,201.09Z"/><path class="cls-3" d="M1642.51,201.09l-68.13,819.17c-4.91,59-30.35,150.78-56.54,203.91l-614.3,1246c-20.79,42.16-80.9,42.21-101.75.08L185.06,1224.52c-26.4-53.32-52-145.45-57-204.74L60,200.86"/><path class="cls-4" d="M3663.47,200.08c124,7.93,243,49.42,339.48,117.07,48.25,33.74,91.25,73.22,126.55,117.41,8.73,11.13,17.52,22,25.22,33.7l11.72,17.21a39.75,39.75,0,0,1,2.3,3.8l2,3.6,4,7.22q15.9,28.79,31.21,58.19c20.37,39.23,40.11,79.11,58.55,120.31,18.41,40.64,36,82.11,51.09,126.16,5.4,15.8-1.69,33.69-17.14,40a31,31,0,0,1-21.41.84c-44.75-14.49-86.89-31.63-128.2-49.6-41.47-17.81-81.65-36.94-121.18-56.72Q3998,724.4,3968.94,709l-7.28-3.84-3.63-1.93a22.24,22.24,0,0,0-3.36-1.68l-11.3-4.35c-7.32-3-15.09-5.17-22.29-7.76-7.3-2.44-15-4.11-22-6.31-7.49-1.57-14.47-3.61-21.81-4.76-7.22-1.34-14.17-2.84-21.37-3.58l-10.5-1.39-10.46-1c-21.48-11.86-49.85-10.34-78.32-4-16.6,3.7-27.19-17.18-14.47-28.46l83.07-73.65L3677.09,430.35l126.3-51.87-139.92-178.4"/></svg>